<svg width="24" height="24" viewBox="0 0 24 24" fill="none" xmlns="http://www.w3.org/2000/svg">
<path d="M3 7.98222H21C21.2652 7.98222 21.5196 7.8778 21.7071 7.69193C21.8946 7.50606 22 7.25397 22 6.99111C22 6.72825 21.8946 6.47616 21.7071 6.29029C21.5196 6.10442 21.2652 6 21 6H3C2.73478 6 2.48043 6.10442 2.29289 6.29029C2.10536 6.47616 2 6.72825 2 6.99111C2 7.25397 2.10536 7.50606 2.29289 7.69193C2.48043 7.8778 2.73478 7.98222 3 7.98222ZM21 15.9111H3C2.73478 15.9111 2.48043 16.0155 2.29289 16.2014C2.10536 16.3873 2 16.6394 2 16.9022C2 17.1651 2.10536 17.4172 2.29289 17.603C2.48043 17.7889 2.73478 17.8933 3 17.8933H21C21.2652 17.8933 21.5196 17.7889 21.7071 17.603C21.8946 17.4172 22 17.1651 22 16.9022C22 16.6394 21.8946 16.3873 21.7071 16.2014C21.5196 16.0155 21.2652 15.9111 21 15.9111ZM21 10.9556H3C2.73478 10.9556 2.48043 11.06 2.29289 11.2458C2.10536 11.4317 2 11.6838 2 11.9467C2 12.2095 2.10536 12.4616 2.29289 12.6475C2.48043 12.8334 2.73478 12.9378 3 12.9378H21C21.2652 12.9378 21.5196 12.8334 21.7071 12.6475C21.8946 12.4616 22 12.2095 22 11.9467C22 11.6838 21.8946 11.4317 21.7071 11.2458C21.5196 11.06 21.2652 10.9556 21 10.9556Z" fill="white"/>
</svg>
